<svg width="243" height="42" viewBox="0 0 243 42" fill="none" xmlns="http://www.w3.org/2000/svg">
<path d="M7.36 30.356L0.0520001 22.4L7.36 14.444H15.1L7.756 22.4L15.1 30.356H7.36ZM227.237 14.444H234.977L242.285 22.4L234.977 30.356H227.237L234.581 22.4L227.237 14.444Z" fill="#6900EE"/>
<path d="M35.7921 30.536H26.3601L24.8481 35H18.4041L27.5481 9.728H34.6761L43.8201 35H37.3041L35.7921 30.536ZM34.2081 25.784L31.0761 16.532L27.9801 25.784H34.2081ZM75.4391 14.912L70.0031 35H63.1991L60.0311 21.968L56.7551 35H49.9871L44.5151 14.912H50.6711L53.5151 29.276L56.8991 14.912H63.4151L66.8351 29.204L69.6431 14.912H75.4391ZM96.7227 24.632C96.7227 25.208 96.6867 25.808 96.6147 26.432H82.6827C82.7787 27.68 83.1747 28.64 83.8707 29.312C84.5907 29.96 85.4667 30.284 86.4987 30.284C88.0347 30.284 89.1027 29.636 89.7027 28.34H96.2547C95.9187 29.66 95.3067 30.848 94.4187 31.904C93.5547 32.96 92.4627 33.788 91.1427 34.388C89.8227 34.988 88.3467 35.288 86.7147 35.288C84.7467 35.288 82.9947 34.868 81.4587 34.028C79.9227 33.188 78.7227 31.988 77.8587 30.428C76.9947 28.868 76.5627 27.044 76.5627 24.956C76.5627 22.868 76.9827 21.044 77.8227 19.484C78.6867 17.924 79.8867 16.724 81.4227 15.884C82.9587 15.044 84.7227 14.624 86.7147 14.624C88.6587 14.624 90.3867 15.032 91.8987 15.848C93.4107 16.664 94.5867 17.828 95.4267 19.34C96.2907 20.852 96.7227 22.616 96.7227 24.632ZM90.4227 23.012C90.4227 21.956 90.0627 21.116 89.3427 20.492C88.6227 19.868 87.7227 19.556 86.6427 19.556C85.6107 19.556 84.7347 19.856 84.0147 20.456C83.3187 21.056 82.8867 21.908 82.7187 23.012H90.4227ZM108.142 35.288C106.39 35.288 104.83 34.988 103.462 34.388C102.094 33.788 101.014 32.972 100.222 31.94C99.4303 30.884 98.9863 29.708 98.8903 28.412H104.974C105.046 29.108 105.37 29.672 105.946 30.104C106.522 30.536 107.23 30.752 108.07 30.752C108.838 30.752 109.426 30.608 109.834 30.32C110.266 30.008 110.482 29.612 110.482 29.132C110.482 28.556 110.182 28.136 109.582 27.872C108.982 27.584 108.01 27.272 106.666 26.936C105.226 26.6 104.026 26.252 103.066 25.892C102.106 25.508 101.278 24.92 100.582 24.128C99.8863 23.312 99.5383 22.22 99.5383 20.852C99.5383 19.7 99.8503 18.656 100.474 17.72C101.122 16.76 102.058 16.004 103.282 15.452C104.53 14.9 106.006 14.624 107.71 14.624C110.23 14.624 112.21 15.248 113.65 16.496C115.114 17.744 115.954 19.4 116.17 21.464H110.482C110.386 20.768 110.074 20.216 109.546 19.808C109.042 19.4 108.37 19.196 107.53 19.196C106.81 19.196 106.258 19.34 105.874 19.628C105.49 19.892 105.298 20.264 105.298 20.744C105.298 21.32 105.598 21.752 106.198 22.04C106.822 22.328 107.782 22.616 109.078 22.904C110.566 23.288 111.778 23.672 112.714 24.056C113.65 24.416 114.466 25.016 115.162 25.856C115.882 26.672 116.254 27.776 116.278 29.168C116.278 30.344 115.942 31.4 115.27 32.336C114.622 33.248 113.674 33.968 112.426 34.496C111.202 35.024 109.774 35.288 108.142 35.288ZM129.189 35.288C127.221 35.288 125.445 34.868 123.861 34.028C122.301 33.188 121.065 31.988 120.153 30.428C119.265 28.868 118.821 27.044 118.821 24.956C118.821 22.892 119.277 21.08 120.188 19.52C121.101 17.936 122.349 16.724 123.933 15.884C125.517 15.044 127.293 14.624 129.261 14.624C131.229 14.624 133.005 15.044 134.589 15.884C136.173 16.724 137.421 17.936 138.333 19.52C139.245 21.08 139.701 22.892 139.701 24.956C139.701 27.02 139.233 28.844 138.297 30.428C137.385 31.988 136.125 33.188 134.517 34.028C132.933 34.868 131.157 35.288 129.189 35.288ZM129.189 29.96C130.365 29.96 131.361 29.528 132.177 28.664C133.017 27.8 133.437 26.564 133.437 24.956C133.437 23.348 133.029 22.112 132.213 21.248C131.421 20.384 130.437 19.952 129.261 19.952C128.061 19.952 127.065 20.384 126.273 21.248C125.481 22.088 125.085 23.324 125.085 24.956C125.085 26.564 125.469 27.8 126.237 28.664C127.029 29.528 128.013 29.96 129.189 29.96ZM168.598 14.696C171.094 14.696 173.074 15.452 174.538 16.964C176.026 18.476 176.77 20.576 176.77 23.264V35H170.65V24.092C170.65 22.796 170.302 21.8 169.606 21.104C168.934 20.384 167.998 20.024 166.798 20.024C165.598 20.024 164.65 20.384 163.954 21.104C163.282 21.8 162.946 22.796 162.946 24.092V35H156.826V24.092C156.826 22.796 156.478 21.8 155.782 21.104C155.11 20.384 154.174 20.024 152.974 20.024C151.774 20.024 150.826 20.384 150.13 21.104C149.458 21.8 149.122 22.796 149.122 24.092V35H142.966V14.912H149.122V17.432C149.746 16.592 150.562 15.932 151.57 15.452C152.578 14.948 153.718 14.696 154.99 14.696C156.502 14.696 157.846 15.02 159.022 15.668C160.222 16.316 161.158 17.24 161.83 18.44C162.526 17.336 163.474 16.436 164.674 15.74C165.874 15.044 167.182 14.696 168.598 14.696ZM200.012 24.632C200.012 25.208 199.976 25.808 199.904 26.432H185.972C186.068 27.68 186.464 28.64 187.16 29.312C187.88 29.96 188.756 30.284 189.788 30.284C191.324 30.284 192.392 29.636 192.992 28.34H199.544C199.208 29.66 198.596 30.848 197.708 31.904C196.844 32.96 195.752 33.788 194.432 34.388C193.112 34.988 191.636 35.288 190.004 35.288C188.036 35.288 186.284 34.868 184.748 34.028C183.212 33.188 182.012 31.988 181.148 30.428C180.284 28.868 179.852 27.044 179.852 24.956C179.852 22.868 180.272 21.044 181.112 19.484C181.976 17.924 183.176 16.724 184.712 15.884C186.248 15.044 188.012 14.624 190.004 14.624C191.948 14.624 193.676 15.032 195.188 15.848C196.7 16.664 197.876 17.828 198.716 19.34C199.58 20.852 200.012 22.616 200.012 24.632ZM193.712 23.012C193.712 21.956 193.352 21.116 192.632 20.492C191.912 19.868 191.012 19.556 189.932 19.556C188.9 19.556 188.024 19.856 187.304 20.456C186.608 21.056 186.176 21.908 186.008 23.012H193.712Z" fill="black"/>
<path d="M224.604 0.799998L214.956 41.732H209.016L218.664 0.799998H224.604Z" fill="#D1D1D1"/>
</svg>
