<svg width="800" height="800" viewBox="0 0 32 32" fill="none" xmlns="http://www.w3.org/2000/svg"><rect x="2" y="2" width="28" height="28" rx="6" fill="url(#a)"/><rect x="2" y="2" width="28" height="28" rx="6" fill="url(#b)"/><rect x="2" y="2" width="28" height="28" rx="6" fill="url(#c)"/><path d="M23 10.5c0 .8284-.6716 1.5-1.5 1.5s-1.5-.6716-1.5-1.5.6716-1.5 1.5-1.5 1.5.6716 1.5 1.5Z" fill="#fff"/><path fill-rule="evenodd" clip-rule="evenodd" d="M16 21c2.7614 0 5-2.2386 5-5s-2.2386-5-5-5-5 2.2386-5 5 2.2386 5 5 5Zm0-2c1.6569 0 3-1.3431 3-3s-1.3431-3-3-3-3 1.3431-3 3 1.3431 3 3 3Z" fill="#fff"/><path fill-rule="evenodd" clip-rule="evenodd" d="M6 15.6c0-3.3603 0-5.0405.654-6.324a6 6 0 0 1 2.622-2.622C10.5596 6 12.2398 6 15.6 6h.8c3.3603 0 5.0405 0 6.3239.654a5.9996 5.9996 0 0 1 2.6221 2.622C26 10.5596 26 12.2398 26 15.6v.8c0 3.3603 0 5.0405-.654 6.3239a5.9993 5.9993 0 0 1-2.6221 2.6221C21.4405 26 19.7603 26 16.4 26h-.8c-3.3603 0-5.0405 0-6.324-.654a5.9996 5.9996 0 0 1-2.622-2.6221C6 21.4405 6 19.7603 6 16.4v-.8ZM15.6 8h.8c1.7132 0 2.8777.0016 3.7779.0751.8769.0716 1.3253.2015 1.6381.3609a4.0003 4.0003 0 0 1 1.748 1.748c.1594.3128.2893.7612.3609 1.6381.0735.9002.0751 2.0647.0751 3.7779v.8c0 1.7132-.0016 2.8777-.0751 3.7779-.0716.8769-.2015 1.3253-.3609 1.6381a4.0003 4.0003 0 0 1-1.748 1.748c-.3128.1594-.7612.2893-1.6381.3609-.9002.0735-2.0647.0751-3.7779.0751h-.8c-1.7132 0-2.8777-.0016-3.7779-.0751-.8769-.0716-1.3253-.2015-1.6381-.3609a4.0003 4.0003 0 0 1-1.748-1.748c-.1594-.3128-.2893-.7612-.3609-1.6381C8.0016 19.2777 8 18.1132 8 16.4v-.8c0-1.7132.0016-2.8777.0751-3.7779.0716-.8769.2015-1.3253.3609-1.6381a4.0003 4.0003 0 0 1 1.748-1.748c.3128-.1594.7612-.2893 1.6381-.3609C12.7223 8.0016 13.8868 8 15.6 8Z" fill="#fff"/><defs><radialGradient id="a" cx="0" cy="0" r="1" gradientUnits="userSpaceOnUse" gradientTransform="matrix(14.5 -21 21 14.5 12 23)"><stop stop-color="#B13589"/><stop offset=".7931" stop-color="#C62F94"/><stop offset="1" stop-color="#8A3AC8"/></radialGradient><radialGradient id="b" cx="0" cy="0" r="1" gradientUnits="userSpaceOnUse" gradientTransform="matrix(9.5 -20.5 20.5 9.5 11 31)"><stop stop-color="#E0E8B7"/><stop offset=".4447" stop-color="#FB8A2E"/><stop offset=".7147" stop-color="#E2425C"/><stop offset="1" stop-color="#E2425C" stop-opacity="0"/></radialGradient><radialGradient id="c" cx="0" cy="0" r="1" gradientUnits="userSpaceOnUse" gradientTransform="matrix(38.5 -5.5 1.1764 8.2348 .5 3)"><stop offset=".1567" stop-color="#406ADC"/><stop offset=".4678" stop-color="#6A45BE"/><stop offset="1" stop-color="#6A45BE" stop-opacity="0"/></radialGradient></defs></svg>