<svg width="800" height="800" viewBox="0 -4 48 48" xmlns="http://www.w3.org/2000/svg"><path d="M48 4.7353a19.2348 19.2348 0 0 1-5.6545 1.589c2.0341-1.2481 3.595-3.2272 4.3303-5.5847-1.9045 1.1557-4.0091 1.9964-6.2574 2.4471C38.6265 1.225 36.0655 0 33.2312 0c-5.4348 0-9.844 4.5215-9.844 10.0975 0 .7916.0845 1.5601.2536 2.2998-8.1846-.4219-15.4394-4.4377-20.2994-10.554-.848 1.4965-1.3326 3.2329-1.3326 5.082 0 3.5016 1.7383 6.593 4.381 8.4044-1.6115-.049-3.1329-.5085-4.4627-1.2596v.1242c0 4.8942 3.395 8.9765 7.9028 9.901-.8255.237-1.696.3554-2.5948.3554a9.5656 9.5656 0 0 1-1.8539-.1791c1.2538 4.01 4.8882 6.931 9.1988 7.009-3.3696 2.71-7.6182 4.325-12.2303 4.325-.7945 0-1.5806-.0462-2.3497-.1386C4.3585 38.3272 9.5369 40 15.0956 40c18.1159 0 28.019-15.3846 28.019-28.7295 0-.4392-.0084-.8783-.0253-1.3088C45.0136 8.5374 46.6843 6.7606 48 4.7353" fill="#00AAEC" fill-rule="evenodd"/></svg>