<svg width="150" height="150" viewBox="0 0 150 150" fill="none" xmlns="http://www.w3.org/2000/svg">
<rect width="150" height="150" rx="75" fill="#FF64CB" fill-opacity="0.24"/>
<g clip-path="url(#clip0)">
<path d="M104.716 74.3155L99.974 69.5737C98.7786 68.382 97.3842 67.4083 95.8535 66.6967C96.7769 64.6828 97.2559 62.4934 97.2576 60.2779V53.71C97.2576 53.1755 96.8243 52.7422 96.2899 52.7422H89.722C87.5062 52.7436 85.3165 53.2221 83.3022 54.1454C82.5906 52.6147 81.6169 51.2203 80.4252 50.0249L75.6834 45.2831C75.3055 44.9053 74.6929 44.9053 74.315 45.2831L69.5732 50.0249C68.3815 51.2203 67.4078 52.6147 66.6962 54.1454C64.6824 53.2225 62.4935 52.7438 60.2783 52.7422H53.7104C53.176 52.7422 52.7427 53.1755 52.7427 53.71V60.2779C52.744 62.4937 53.2225 64.6833 54.1459 66.6977C52.6152 67.4093 51.2207 68.383 50.0253 69.5747L45.2835 74.3165C44.9057 74.6944 44.9057 75.307 45.2835 75.6849L50.0253 80.4267C51.2207 81.6184 52.6152 82.5921 54.1459 83.3037C53.2229 85.3175 52.7442 87.5064 52.7427 89.7216V96.2895C52.7427 96.8239 53.176 97.2572 53.7104 97.2572H60.2783C62.4941 97.2559 64.6838 96.7773 66.6981 95.854C67.4098 97.3847 68.3834 98.7792 69.5751 99.9745L74.3169 104.716C74.6948 105.094 75.3074 105.094 75.6853 104.716L80.4271 99.9745C81.6189 98.7792 82.5925 97.3847 83.3041 95.854C85.318 96.7771 87.5068 97.2556 89.722 97.2572H96.2899C96.8243 97.2572 97.2576 96.8239 97.2576 96.2895V89.7216C97.2563 87.5058 96.7778 85.3162 95.8545 83.3018C97.3851 82.5901 98.7796 81.6165 99.975 80.4247L104.717 75.6829C105.094 75.3049 105.093 74.6931 104.716 74.3155ZM84.0144 55.9493C85.8011 55.1131 87.7495 54.6791 89.722 54.6777H95.3222V60.2779C95.3214 62.251 94.8876 64.2 94.0516 65.9874C92.6462 65.5471 91.1822 65.3229 89.7094 65.3226H89.3224C87.2881 65.322 85.2766 65.7507 83.4193 66.5806C84.2492 64.7233 84.6779 62.7118 84.6773 60.6775V60.2904C84.6776 58.8182 84.454 57.3544 84.0144 55.9493ZM89.3224 67.258H89.7094C90.8526 67.2603 91.99 67.4179 93.0907 67.7264C92.5832 68.4928 91.9995 69.2061 91.3488 69.8553L91.1436 70.0605C88.6079 72.6091 85.1583 74.0377 81.5632 74.0281L77.3362 74.032L80.4252 70.9431C82.7798 68.5757 85.9835 67.2487 89.3224 67.258ZM82.7419 60.2904V60.6775C82.751 64.016 81.424 67.2195 79.0568 69.5737L75.9679 72.6637V68.4318C75.9583 64.8368 77.3869 61.3871 79.9355 58.8514L80.1407 58.6463C80.7899 57.9955 81.5032 57.412 82.2696 56.9044C82.5799 58.0065 82.7387 59.1456 82.7419 60.2904ZM70.9435 51.3932L75.0002 47.3366L79.0568 51.3932C80.1155 52.4556 80.9752 53.6991 81.5951 55.0648C80.5726 55.6912 79.6261 56.4338 78.7743 57.2779L78.5691 57.4831C76.9882 59.0651 75.7705 60.9721 75.0002 63.0716C74.23 60.9724 73.0126 59.0659 71.4322 57.4841L71.227 57.2789C70.375 56.4344 69.428 55.6915 68.4052 55.0648C69.0251 53.6992 69.8848 52.4557 70.9435 51.3932ZM67.2584 60.2904C67.2607 59.1473 67.4183 58.0099 67.7268 56.9092C68.4932 57.4167 69.2066 58.0003 69.8558 58.6511L70.0609 58.8563C72.6095 61.3919 74.0381 64.8416 74.0286 68.4367V72.6685L70.9396 69.5795C68.5725 67.2233 67.2468 64.0175 67.2584 60.6775V60.2904V60.2904ZM69.5742 70.9431L72.6641 74.032H68.4323C64.8372 74.0416 61.3875 72.613 58.8519 70.0644L58.6467 69.8592C57.9959 69.21 57.4124 68.4967 56.9048 67.7302C58.0069 67.4201 59.1461 67.2613 60.2909 67.258H60.6779C64.0166 67.2489 67.22 68.5759 69.5742 70.9431ZM54.6781 54.6777H60.2783C62.2515 54.6785 64.2004 55.1123 65.9878 55.9483C65.5475 57.3537 65.3234 58.8177 65.323 60.2904V60.6775C65.3224 62.7118 65.7511 64.7233 66.581 66.5806C64.7237 65.7507 62.7122 65.322 60.6779 65.3226H60.2909C58.8186 65.3224 57.3548 65.5459 55.9497 65.9854C55.1136 64.1988 54.6796 62.2504 54.6781 60.2779V54.6777V54.6777ZM51.3937 79.0564L47.337 74.9997L51.3937 70.9431C52.456 69.8844 53.6995 69.0247 55.0652 68.4047C55.6917 69.4272 56.4343 70.3738 57.2784 71.2256L57.4835 71.4308C59.0655 73.0117 60.9725 74.2294 63.0721 74.9997C60.9729 75.7699 59.0663 76.9873 57.4845 78.5677L57.2793 78.7728C56.4349 79.6249 55.6919 80.5718 55.0652 81.5947C53.6996 80.9748 52.4561 80.1151 51.3937 79.0564ZM65.9859 94.0502C64.1992 94.8863 62.2509 95.3203 60.2783 95.3218H54.6781V89.7216C54.679 87.7484 55.1127 85.7994 55.9487 84.0121C57.3541 84.4524 58.8181 84.6765 60.2909 84.6769H60.6779C62.7122 84.6775 64.7237 84.2488 66.581 83.4189C65.7511 85.2761 65.3224 87.2877 65.323 89.3219V89.709C65.3229 91.1813 65.5464 92.6451 65.9859 94.0502ZM60.6779 82.7415H60.2909C59.1477 82.739 58.0103 82.5815 56.9097 82.2731C57.4171 81.5066 58.0008 80.7933 58.6516 80.1441L58.8567 79.9389C61.3924 77.3903 64.842 75.9618 68.4371 75.9713L72.6641 75.9674L69.5751 79.0564C67.2207 81.4238 64.0168 82.7508 60.6779 82.7415ZM67.2584 89.709V89.3219C67.2493 85.9834 68.5763 82.7799 70.9435 80.4257L74.0324 77.3358V81.5676C74.042 85.1627 72.6134 88.6123 70.0648 91.148L69.8596 91.3532C69.2104 92.004 68.4971 92.5876 67.7307 93.0951C67.4205 91.9931 67.2617 90.8539 67.2584 89.709ZM79.0568 98.6062L75.0002 102.663L70.9435 98.6062C69.8853 97.5452 69.0256 96.3035 68.4052 94.9395C69.4279 94.3116 70.3745 93.5673 71.2261 92.7215L71.4312 92.5164C73.012 90.9344 74.2299 89.0274 75.0002 86.9278C75.7703 89.027 76.9877 90.9335 78.5681 92.5154L78.7733 92.7205C79.6251 93.5663 80.572 94.3106 81.5951 94.9386C80.9748 96.3029 80.1151 97.545 79.0568 98.6062ZM82.7419 89.709C82.7395 90.8521 82.582 91.9896 82.2735 93.0902C81.5071 92.5828 80.7938 91.9991 80.1445 91.3483L79.9394 91.1432C77.3908 88.6075 75.9622 85.1578 75.9717 81.5628V77.3358L79.0607 80.4247C81.4266 82.7798 82.7523 85.9835 82.7419 89.3219V89.709V89.709ZM80.4261 79.0564L77.3362 75.9674H81.568C85.1631 75.9579 88.6128 77.3865 91.1484 79.9351L91.3536 80.1402C92.0044 80.7894 92.5879 81.5028 93.0955 82.2692C91.9934 82.5794 90.8544 82.7383 89.7094 82.7415H89.3224C85.9839 82.7505 82.7805 81.4235 80.4261 79.0564ZM95.3222 95.3218H89.722C87.7489 95.3209 85.7999 94.8871 84.0125 94.0512C84.4528 92.6458 84.677 91.1818 84.6773 89.709V89.3219C84.6779 87.2877 84.2492 85.2761 83.4193 83.4189C85.2766 84.2488 87.2881 84.6775 89.3224 84.6769H89.7094C91.1817 84.677 92.6455 84.4536 94.0506 84.014C94.8867 85.8006 95.3208 87.749 95.3222 89.7216V95.3218ZM98.6066 79.0564C97.5457 80.1146 96.304 80.9743 94.94 81.5947C94.312 80.572 93.5677 79.6253 92.722 78.7738L92.5168 78.5687C90.9348 76.9879 89.0278 75.77 86.9282 74.9997C89.0275 74.2295 90.934 73.0122 92.5158 71.4318L92.721 71.2266C93.5668 70.3748 94.3111 69.4279 94.939 68.4047C96.303 69.0252 97.5448 69.8849 98.6057 70.9431L102.663 74.9997L98.6066 79.0564Z" fill="url(#paint0_linear)"/>
</g>
<defs>
<linearGradient id="paint0_linear" x1="74.9997" y1="44.9998" x2="90.5" y2="102" gradientUnits="userSpaceOnUse">
<stop stop-color="#FF64CB"/>
<stop offset="1" stop-color="#6000FF"/>
</linearGradient>
<clipPath id="clip0">
<rect width="60" height="60" fill="white" transform="translate(45 45)"/>
</clipPath>
</defs>
</svg>
