<svg width="90" height="48" viewBox="0 0 90 48" fill="none" xmlns="http://www.w3.org/2000/svg">
<path d="M74.613 46L65.461 32.24L57.397 46H44.981L59.381 23.152L44.661 1.072H57.397L66.421 14.64L74.357 1.072H86.773L72.501 23.728L87.349 46H74.613Z" fill="url(#paint0_linear)"/>
<path d="M12.72 1.072H13.72V0.0719986H12.72V1.072ZM14.704 34.16L13.965 34.8338L13.965 34.8338L14.704 34.16ZM26.416 34.16L27.1442 34.8454L27.1442 34.8454L26.416 34.16ZM28.464 1.072V0.0719986H27.464V1.072H28.464ZM39.408 1.072H40.408V0.0719986H39.408V1.072ZM36.848 38.064L37.6997 38.5881L37.6997 38.5881L36.848 38.064ZM29.936 44.336L29.4994 43.4363L29.4942 43.4389L29.936 44.336ZM10.8 44.4L10.3473 45.2917L10.3555 45.2958L10.3637 45.2998L10.8 44.4ZM4.208 38.128L3.34136 38.627L3.3447 38.6327L4.208 38.128ZM1.776 1.072V0.0719986H0.776V1.072H1.776ZM11.72 1.072V27.952H13.72V1.072H11.72ZM11.72 27.952C11.72 30.7964 12.4209 33.1402 13.965 34.8338L15.443 33.4862C14.3418 32.2785 13.72 30.4836 13.72 27.952H11.72ZM13.965 34.8338C15.5305 36.5508 17.7771 37.336 20.528 37.336V35.336C18.1589 35.336 16.5228 34.6706 15.443 33.4862L13.965 34.8338ZM20.528 37.336C23.2807 37.336 25.5397 36.5502 27.1442 34.8454L25.6878 33.4746C24.5617 34.6711 22.8953 35.336 20.528 35.336V37.336ZM27.1442 34.8454C28.7377 33.1523 29.464 30.804 29.464 27.952H27.464C27.464 30.476 26.825 32.2664 25.6878 33.4746L27.1442 34.8454ZM29.464 27.952V1.072H27.464V27.952H29.464ZM28.464 2.072H39.408V0.0719986H28.464V2.072ZM38.408 1.072V27.888H40.408V1.072H38.408ZM38.408 27.888C38.408 31.7564 37.5858 34.957 35.9963 37.5399L37.6997 38.5881C39.5235 35.6243 40.408 32.0409 40.408 27.888H38.408ZM35.9963 37.5399C34.3884 40.1528 32.2277 42.1123 29.4994 43.4363L30.3726 45.2357C33.447 43.7437 35.8942 41.5219 37.6997 38.5881L35.9963 37.5399ZM29.4942 43.4389C26.7876 44.772 23.7414 45.448 20.336 45.448V47.448C24.0133 47.448 27.367 46.716 30.3779 45.2331L29.4942 43.4389ZM20.336 45.448C16.9258 45.448 13.8994 44.7914 11.2363 43.5002L10.3637 45.2998C13.3326 46.7393 16.6635 47.448 20.336 47.448V45.448ZM11.2527 43.5083C8.65638 42.1902 6.5991 40.2367 5.0713 37.6233L3.3447 38.6327C5.05956 41.566 7.39696 43.7938 10.3473 45.2917L11.2527 43.5083ZM5.07462 37.629C3.55896 34.9966 2.776 31.7642 2.776 27.888H0.776C0.776 32.0331 1.61438 35.6274 3.34138 38.627L5.07462 37.629ZM2.776 27.888V1.072H0.776V27.888H2.776ZM1.776 2.072H12.72V0.0719986H1.776V2.072ZM74.613 46L73.7804 46.5538L74.0771 47H74.613V46ZM65.461 32.24L66.2936 31.6862L65.4074 30.3537L64.5982 31.7344L65.461 32.24ZM57.397 46V47H57.97L58.2598 46.5056L57.397 46ZM44.981 46L44.135 45.4668L43.1687 47H44.981V46ZM59.381 23.152L60.227 23.6852L60.5727 23.1367L60.2131 22.5973L59.381 23.152ZM44.661 1.072V0.0719986H42.7925L43.8289 1.6267L44.661 1.072ZM57.397 1.072L58.2297 0.518205L57.9329 0.0719986H57.397V1.072ZM66.421 14.64L65.5883 15.1938L66.4754 16.5276L67.2842 15.1449L66.421 14.64ZM74.357 1.072V0.0719986H73.7834L73.4938 0.567115L74.357 1.072ZM86.773 1.072L87.6191 1.605L88.5848 0.0719986H86.773V1.072ZM72.501 23.728L71.6549 23.195L71.3094 23.7434L71.669 24.2827L72.501 23.728ZM87.349 46V47H89.2175L88.1811 45.4453L87.349 46ZM75.4456 45.4462L66.2936 31.6862L64.6284 32.7938L73.7804 46.5538L75.4456 45.4462ZM64.5982 31.7344L56.5342 45.4944L58.2598 46.5056L66.3238 32.7456L64.5982 31.7344ZM57.397 45H44.981V47H57.397V45ZM45.827 46.5332L60.227 23.6852L58.535 22.6188L44.135 45.4668L45.827 46.5332ZM60.2131 22.5973L45.4931 0.517298L43.8289 1.6267L58.549 23.7067L60.2131 22.5973ZM44.661 2.072H57.397V0.0719986H44.661V2.072ZM56.5643 1.62579L65.5883 15.1938L67.2537 14.0862L58.2297 0.518205L56.5643 1.62579ZM67.2842 15.1449L75.2202 1.57688L73.4938 0.567115L65.5578 14.1351L67.2842 15.1449ZM74.357 2.072H86.773V0.0719986H74.357V2.072ZM85.9269 0.538995L71.6549 23.195L73.3471 24.261L87.6191 1.605L85.9269 0.538995ZM71.669 24.2827L86.517 46.5547L88.1811 45.4453L73.3331 23.1733L71.669 24.2827ZM87.349 45H74.613V47H87.349V45Z" fill="black"/>
<defs>
<linearGradient id="paint0_linear" x1="43.5" y1="-15" x2="43.5" y2="63" gradientUnits="userSpaceOnUse">
<stop stop-color="#0EEAB5"/>
<stop offset="1" stop-color="#44187C"/>
</linearGradient>
</defs>
</svg>
